<?xml version="1.0" encoding="utf-8"?>
<!-- Generator: Adobe Illustrator 23.1.1, SVG Export Plug-In . SVG Version: 6.00 Build 0)  -->
<svg version="1.1" xmlns="http://www.w3.org/2000/svg" xmlns:xlink="http://www.w3.org/1999/xlink" x="0px" y="0px"
	 viewBox="0 0 235.3 127.6" style="enable-background:new 0 0 235.3 127.6;" xml:space="preserve">
<style type="text/css">
	.st0{fill:none;}
	.st1{fill:#414140;}
	.st2{fill:#00A14C;}
</style>
<g id="Ebene_3">
	<rect class="st0" width="235.3" height="127.6"/>
</g>
<g id="Ebene_5">
	<g>
		<path class="st1" d="M30.5,102.5c-9.8,0-17.9-1.8-24.3-8.5L16.2,84c3.3,3.3,9.2,4.5,14.3,4.5c6.2,0,9.2-2.1,9.2-5.8
			c0-1.5-0.4-2.8-1.3-3.8c-0.8-0.8-2.2-1.4-4.2-1.7l-7.8-1.1c-5.7-0.8-10-2.7-12.9-5.7c-3-3.1-4.4-7.4-4.4-12.9
			c0-11.7,8.8-20.3,23.4-20.3c9.2,0,16.1,2.2,21.6,7.7l-9.9,9.9C40.3,50.8,35,51,32.2,51c-5.5,0-7.8,3.2-7.8,6c0,0.8,0.3,2,1.3,3
			c0.8,0.8,2.2,1.6,4.4,1.9l7.8,1.1c5.8,0.8,9.9,2.6,12.6,5.3c3.4,3.3,4.8,8.1,4.8,14.1C55.3,95.4,44,102.5,30.5,102.5z"/>
		<path class="st1" d="M90.9,51.9V102H75.1V51.9H59.4V37.8h47.3v14.1H90.9z"/>
		<path class="st1" d="M113.8,102V37.8h15.8V102H113.8z"/>
		<path class="st1" d="M175.2,102l-10.5-19.7L154.1,102h-18l20-32.9l-18.8-31.3h17.9l9.4,18.1l9.4-18.1H192l-18.8,31.3l20,32.9
			H175.2z"/>
	</g>
	<g>
		<path class="st2" d="M18.7,120.3c-0.7,0.7-1.7,1-2.9,1h-3.9V110h3.9c1.2,0,2.2,0.4,2.9,1c1.2,1.2,1.1,2.9,1.1,4.5
			S19.8,119.1,18.7,120.3z M17.8,111.9c-0.6-0.6-1.3-0.8-2.2-0.8h-2.5v9.1h2.5c0.9,0,1.6-0.2,2.2-0.8c0.8-0.8,0.7-2.5,0.7-3.9
			S18.6,112.7,17.8,111.9z"/>
		<path class="st2" d="M26.3,121.4c-2.3,0-3.9-1.6-3.9-3.8V110h1.2v7.5c0,1.7,1.1,2.8,2.7,2.8s2.7-1.1,2.7-2.8V110h1.2v7.6
			C30.2,119.8,28.6,121.4,26.3,121.4z"/>
		<path class="st2" d="M39.6,121.3l-2.6-5h-2.7v5h-1.2V110h4.3c2,0,3.3,1.2,3.3,3.1c0,1.7-1,2.7-2.5,3l2.7,5.1H39.6z M37.4,111.1h-3
			v4.1h3c1.3,0,2.3-0.7,2.3-2.1C39.6,111.8,38.7,111.1,37.4,111.1z"/>
		<path class="st2" d="M47.1,121.4c-1.1,0-2.1-0.4-2.9-1.2c-1.1-1.1-1.1-2.2-1.1-4.6s0-3.5,1.1-4.6c0.8-0.8,1.8-1.2,2.9-1.2
			c2,0,3.5,1.2,3.9,3.4h-1.2c-0.3-1.4-1.3-2.3-2.7-2.3c-0.7,0-1.5,0.3-2,0.8c-0.7,0.7-0.8,1.5-0.8,3.9s0.1,3.1,0.8,3.9
			c0.5,0.5,1.2,0.8,2,0.8c1.4,0,2.4-0.9,2.7-2.3H51C50.6,120.2,49.1,121.4,47.1,121.4z"/>
		<path class="st2" d="M60.1,121.3v-5.2h-5.4v5.2h-1.2V110h1.2v5.1h5.4V110h1.2v11.3H60.1z"/>
		<path class="st2" d="M65.5,111.1v4.2h5v1.1h-5v5h-1.2V110h7v1.1H65.5z"/>
		<path class="st2" d="M73.6,121.3V110h1.2v10.2h5.8v1.1H73.6z"/>
		<path class="st2" d="M86.2,121.4c-2.3,0-3.9-1.6-3.9-3.8V110h1.2v7.5c0,1.7,1.1,2.8,2.7,2.8s2.7-1.1,2.7-2.8V110h1.2v7.6
			C90.2,119.8,88.5,121.4,86.2,121.4z"/>
		<path class="st2" d="M96.2,121.4c-1.7,0-2.8-0.4-3.9-1.5l0.8-0.8c0.9,0.9,1.8,1.2,3.1,1.2c1.7,0,2.7-0.8,2.7-2.1
			c0-0.6-0.2-1.1-0.5-1.4s-0.7-0.4-1.5-0.5l-1.3-0.2c-0.9-0.1-1.6-0.4-2.1-0.9c-0.6-0.5-0.9-1.2-0.9-2.1c0-1.9,1.4-3.2,3.6-3.2
			c1.4,0,2.4,0.4,3.4,1.2l-0.8,0.8c-0.7-0.6-1.4-1-2.6-1c-1.5,0-2.4,0.8-2.4,2.1c0,0.6,0.2,1,0.5,1.3c0.3,0.3,0.9,0.5,1.5,0.6
			l1.2,0.2c1.1,0.2,1.6,0.4,2.1,0.8c0.6,0.5,1,1.3,1,2.2C100.1,120.2,98.5,121.4,96.2,121.4z"/>
		<path class="st2" d="M105.7,121.4c-1.7,0-2.8-0.4-3.9-1.5l0.8-0.8c0.9,0.9,1.8,1.2,3.1,1.2c1.7,0,2.7-0.8,2.7-2.1
			c0-0.6-0.2-1.1-0.5-1.4s-0.7-0.4-1.5-0.5l-1.3-0.2c-0.9-0.1-1.6-0.4-2.1-0.9c-0.6-0.5-0.9-1.2-0.9-2.1c0-1.9,1.4-3.2,3.6-3.2
			c1.4,0,2.4,0.4,3.4,1.2l-0.8,0.8c-0.7-0.6-1.4-1-2.6-1c-1.5,0-2.4,0.8-2.4,2.1c0,0.6,0.2,1,0.5,1.3c0.3,0.3,0.9,0.5,1.5,0.6
			l1.2,0.2c1.1,0.2,1.6,0.4,2.1,0.8c0.6,0.5,1,1.3,1,2.2C109.6,120.2,108.1,121.4,105.7,121.4z"/>
		<path class="st2" d="M120.5,121.3v-8.6l-3.1,6.8h-1l-3.1-6.8v8.6h-1.2V110h1.2l3.7,8l3.6-8h1.2v11.3H120.5z"/>
		<path class="st2" d="M124.8,121.3V110h7v1.1H126v4h5v1.1h-5v4.1h5.8v1.1H124.8z"/>
		<path class="st2" d="M137.6,121.4c-1.7,0-2.8-0.4-3.9-1.5l0.8-0.8c0.9,0.9,1.8,1.2,3.1,1.2c1.7,0,2.7-0.8,2.7-2.1
			c0-0.6-0.2-1.1-0.5-1.4s-0.7-0.4-1.5-0.5l-1.3-0.2c-0.9-0.1-1.6-0.4-2.1-0.9c-0.6-0.5-0.9-1.2-0.9-2.1c0-1.9,1.4-3.2,3.6-3.2
			c1.4,0,2.4,0.4,3.4,1.2l-0.8,0.8c-0.7-0.6-1.4-1-2.6-1c-1.5,0-2.4,0.8-2.4,2.1c0,0.6,0.2,1,0.5,1.3c0.3,0.3,0.9,0.5,1.5,0.6
			l1.2,0.2c1.1,0.2,1.6,0.4,2.1,0.8c0.6,0.5,1,1.3,1,2.2C141.5,120.2,139.9,121.4,137.6,121.4z"/>
		<path class="st2" d="M147.1,121.4c-1.7,0-2.8-0.4-3.9-1.5l0.8-0.8c0.9,0.9,1.8,1.2,3.1,1.2c1.7,0,2.7-0.8,2.7-2.1
			c0-0.6-0.2-1.1-0.5-1.4c-0.4-0.3-0.7-0.4-1.5-0.5l-1.3-0.2c-0.9-0.1-1.6-0.4-2.1-0.9c-0.6-0.5-0.9-1.2-0.9-2.1
			c0-1.9,1.4-3.2,3.6-3.2c1.4,0,2.4,0.4,3.4,1.2l-0.8,0.8c-0.7-0.6-1.4-1-2.6-1c-1.5,0-2.4,0.8-2.4,2.1c0,0.6,0.2,1,0.5,1.3
			c0.3,0.3,0.9,0.5,1.5,0.6l1.2,0.2c1.1,0.2,1.6,0.4,2.1,0.8c0.6,0.5,1,1.3,1,2.2C151,120.2,149.5,121.4,147.1,121.4z"/>
		<path class="st2" d="M157.1,111.1v10.2h-1.2v-10.2h-3.3V110h7.7v1.1H157.1z"/>
		<path class="st2" d="M162.6,121.3V110h7v1.1h-5.8v4h5v1.1h-5v4.1h5.8v1.1H162.6z"/>
		<path class="st2" d="M175.4,121.4c-1.1,0-2.1-0.4-2.9-1.2c-1.1-1.1-1.1-2.2-1.1-4.6s0-3.5,1.1-4.6c0.8-0.8,1.8-1.2,2.9-1.2
			c2,0,3.5,1.2,3.9,3.4h-1.2c-0.3-1.4-1.3-2.3-2.7-2.3c-0.7,0-1.5,0.3-2,0.8c-0.7,0.7-0.8,1.5-0.8,3.9s0.1,3.1,0.8,3.9
			c0.5,0.5,1.2,0.8,2,0.8c1.4,0,2.4-0.9,2.7-2.3h1.2C178.9,120.2,177.4,121.4,175.4,121.4z"/>
		<path class="st2" d="M188.4,121.3v-5.2H183v5.2h-1.2V110h1.2v5.1h5.4V110h1.2v11.3H188.4z"/>
		<path class="st2" d="M199.8,121.3l-6-9.1v9.1h-1.2V110h1.1l6,9v-9h1.2v11.3H199.8z"/>
		<path class="st2" d="M204,121.3V110h1.2v11.3H204z"/>
		<path class="st2" d="M215.3,121.3l-3.4-6l-2.4,2.9v3.2h-1.2V110h1.2v6.5l5.3-6.5h1.5l-3.6,4.4l4.1,6.9H215.3z"/>
	</g>
	<g>
		<path class="st2" d="M228.1,69.7c0-34.9-28.3-63.2-63.2-63.2c-20.5,0-38.8,9.8-50.3,25h22.1c7.9-5.8,17.6-9.3,28.2-9.3
			c26.2,0,47.5,21.3,47.5,47.5c0,12.5-4.8,23.8-12.7,32.3h19.5C224.8,92.5,228.1,81.5,228.1,69.7z"/>
	</g>
</g>
</svg>
